<svg xmlns="http://www.w3.org/2000/svg" xmlns:xlink="http://www.w3.org/1999/xlink" version="1.1" x="0px" y="0px" width="405px" height="405px" viewBox="0 0 405 405" enable-background="new 0 0 405 405" xml:space="preserve">
<g id="Layer_3">
	<ellipse fill="#CCCCCC" stroke="#CCCCCC" stroke-miterlimit="10" cx="204.063" cy="85.163" rx="42.094" ry="41.29"/>
	<path fill="#CCCCCC" stroke="#CCCCCC" stroke-miterlimit="10" d="M160.931,138.998c-2.813,3.041-7.558,3.226-10.599,0.412l0,0   c-3.041-2.813-3.225-7.558-0.412-10.599l8.15-8.809c2.812-3.041,7.557-3.226,10.597-0.412l0,0   c3.042,2.813,3.226,7.558,0.412,10.598L160.931,138.998z"/>
	<path fill="#CCCCCC" stroke="#CCCCCC" stroke-miterlimit="10" d="M210.5,156c0,4.142-3.357,7.5-7.5,7.5l0,0   c-4.143,0-7.5-3.358-7.5-7.5v-12c0-4.142,3.357-7.5,7.5-7.5l0,0c4.143,0,7.5,3.358,7.5,7.5V156z"/>
	<path fill="#CCCCCC" stroke="#CCCCCC" stroke-miterlimit="10" d="M258.992,128.031c3.052,2.801,3.255,7.545,0.454,10.597l0,0   c-2.801,3.052-7.544,3.256-10.597,0.455l-8.842-8.113c-3.052-2.801-3.255-7.545-0.454-10.597l0,0   c2.801-3.052,7.544-3.256,10.597-0.455L258.992,128.031z"/>
	<path fill="#CCCCCC" stroke="#CCCCCC" stroke-miterlimit="10" d="M250.931,48.998c-2.813,3.04-7.558,3.225-10.599,0.412l0,0   c-3.041-2.813-3.225-7.559-0.412-10.6l8.15-8.809c2.812-3.04,7.557-3.225,10.597-0.412l0,0c3.042,2.813,3.226,7.559,0.412,10.599   L250.931,48.998z"/>
	<path fill="#CCCCCC" stroke="#CCCCCC" stroke-miterlimit="10" d="M211.5,30c0,4.142-3.357,7.5-7.5,7.5l0,0   c-4.143,0-7.5-3.358-7.5-7.5V18c0-4.142,3.357-7.5,7.5-7.5l0,0c4.143,0,7.5,3.358,7.5,7.5V30z"/>
	<path fill="#CCCCCC" stroke="#CCCCCC" stroke-miterlimit="10" d="M261.495,92.998c-4.141-0.001-7.497-3.361-7.496-7.503l0,0   c0.003-4.143,3.362-7.499,7.505-7.496l12.001,0.004c4.141,0.002,7.497,3.361,7.496,7.504l0,0c-0.003,4.143-3.362,7.499-7.504,7.497   L261.495,92.998z"/>
	<path fill="#CCCCCC" stroke="#CCCCCC" stroke-miterlimit="10" d="M167.05,40.47c2.919,2.939,2.903,7.687-0.035,10.606l0,0   c-2.938,2.92-7.687,2.905-10.606-0.034l-8.458-8.513c-2.919-2.938-2.903-7.687,0.035-10.606l0,0   c2.938-2.92,7.687-2.905,10.606,0.034L167.05,40.47z"/>
</g>
<g id="Layer_1">
	<path fill="#FFFFFF" stroke="#000000" stroke-miterlimit="10" d="M228.614-43.031"/>
	<path fill="#666666" d="M317.224,317.392c-73.336,26.722-154.448-11.067-181.169-84.404   c-23.958-65.751,3.947-137.745,62.828-171.193c-15.316,1.048-30.744,4.234-45.893,9.753   C66.229,103.16,21.522,199.122,53.134,285.883c31.613,86.762,127.575,131.469,214.336,99.856   c48.196-17.562,83.404-54.983,99.772-99.65C353.388,299.537,336.54,310.354,317.224,317.392z"/>
</g>
</svg>
