<svg xmlns="http://www.w3.org/2000/svg" xmlns:xlink="http://www.w3.org/1999/xlink" version="1.1" id="Layer_1" x="0px" y="0px" width="560px" height="560px" viewBox="0 0 560 560" enable-background="new 0 0 560 560" xml:space="preserve">
    <path fill="#FFFFFF" stroke="#666666" stroke-miterlimit="10" d="M405.988,268.15c0,68.004-56.199,123.131-125.53,123.131  c-69.324,0-125.526-55.127-125.526-123.131s56.202-123.132,125.526-123.132C349.789,145.018,405.988,200.146,405.988,268.15z"/>
    <path fill="#FFFFFF" stroke="#666666" stroke-miterlimit="10" d="M150.834,428.825c-8.702,8.763-22.863,8.814-31.63,0.113l0,0  c-8.767-8.705-8.815-22.867-0.112-31.634l25.216-25.395c8.698-8.763,22.86-8.814,31.624-0.113l0,0  c8.77,8.705,8.818,22.867,0.113,31.631L150.834,428.825z"/>
    <path fill="#FFFFFF" stroke="#666666" stroke-miterlimit="10" d="M301.5,478.5c0,12.15-9.85,22-22,22l0,0c-12.15,0-22-9.85-22-22  v-36c0-12.15,9.85-22,22-22l0,0c12.15,0,22,9.85,22,22V478.5z"/>
    <path fill="#FFFFFF" stroke="#666666" stroke-miterlimit="10" d="M444.38,396.814c8.852,8.614,9.045,22.774,0.431,31.624l0,0  c-8.613,8.855-22.77,9.052-31.626,0.436l-25.649-24.953c-8.854-8.614-9.048-22.774-0.434-31.624l0,0  c8.615-8.855,22.771-9.052,31.629-0.436L444.38,396.814z"/>
    <path fill="#FFFFFF" stroke="#666666" stroke-miterlimit="10" d="M419.049,160.457c-8.755,8.711-22.916,8.677-31.628-0.078l0,0  c-8.714-8.757-8.678-22.918,0.075-31.632l25.371-25.241c8.751-8.712,22.912-8.677,31.624,0.077l0,0  c8.717,8.758,8.68,22.918-0.077,31.63L419.049,160.457z"/>
    <path fill="#FFFFFF" stroke="#666666" stroke-miterlimit="10" d="M301.5,103.5c0,12.15-9.85,22-22,22l0,0c-12.15,0-22-9.85-22-22  v-36c0-12.15,9.85-22,22-22l0,0c12.15,0,22,9.85,22,22V103.5z"/>
    <path fill="#FFFFFF" stroke="#666666" stroke-miterlimit="10" d="M447.443,290.087c-12.349-0.005-22.358-10.023-22.354-22.377l0,0  c0.008-12.354,10.026-22.361,22.38-22.353l35.787,0.011c12.349,0.006,22.358,10.023,22.354,22.377l0,0  c-0.008,12.354-10.026,22.36-22.378,22.354L447.443,290.087z"/>
    <path fill="#FFFFFF" stroke="#666666" stroke-miterlimit="10" d="M170.055,134.618c8.783,8.686,8.864,22.845,0.18,31.628l0,0  c-8.684,8.786-22.843,8.869-31.629,0.182l-25.449-25.158c-8.783-8.685-8.863-22.845-0.179-31.629l0,0  c8.684-8.785,22.843-8.869,31.629-0.182L170.055,134.618z"/>
    <path fill="#FFFFFF" stroke="#666666" stroke-miterlimit="10" d="M76.096,290.087c-12.348-0.005-22.357-10.023-22.354-22.377l0,0  c0.008-12.354,10.027-22.361,22.38-22.353l35.788,0.011c12.348,0.006,22.357,10.023,22.354,22.377l0,0  c-0.008,12.354-10.027,22.36-22.378,22.354L76.096,290.087z"/>
    </svg>
