<svg xmlns="http://www.w3.org/2000/svg" xmlns:xlink="http://www.w3.org/1999/xlink" version="1.1" x="0px" y="0px" width="560px" height="560px" viewBox="0 0 560 560" enable-background="new 0 0 560 560" xml:space="preserve">
<g id="Layer_1">
	<g>
		<g>
			<path d="M422.442,244.028c-0.031,9.297-0.649,18.556-1.868,27.773c0.357-2.658,0.714-5.316,1.071-7.975     c-2.484,17.862-7.245,35.263-14.216,51.895c1.008-2.389,2.017-4.777,3.024-7.166c-5.021,11.764-11.081,23.009-18.139,33.676     c-1.69,2.556-3.463,5.057-5.267,7.533c-1.377,1.892-5.705,7.424,0.729-0.844c-1.073,1.379-2.177,2.734-3.285,4.086     c-4.153,5.065-8.595,9.89-13.21,14.535c-4.31,4.336-8.851,8.438-13.526,12.372c-1.003,0.844-2.022,1.669-3.041,2.493     c-5.708,4.62,4.876-3.68,0.897-0.664c-2.791,2.115-5.655,4.131-8.55,6.1c-10.923,7.431-22.622,13.688-34.767,18.871     c2.389-1.008,4.778-2.017,7.167-3.024c-16.632,6.971-34.034,11.731-51.895,14.216c2.658-0.357,5.316-0.714,7.975-1.071     c-18.452,2.439-37.095,2.439-55.546,0c2.658,0.357,5.317,0.714,7.975,1.071c-17.861-2.484-35.263-7.245-51.895-14.216     c2.389,1.008,4.777,2.017,7.167,3.024c-11.764-5.021-23.009-11.081-33.676-18.139c-2.556-1.69-5.057-3.463-7.534-5.267     c-1.891-1.377-7.424-5.705,0.844,0.729c-1.379-1.073-2.735-2.177-4.086-3.285c-5.065-4.153-9.89-8.595-14.535-13.21     c-4.336-4.31-8.438-8.851-12.373-13.526c-0.844-1.003-1.668-2.022-2.493-3.041c-4.62-5.709,3.68,4.876,0.664,0.896     c-2.115-2.79-4.131-5.654-6.1-8.549c-7.43-10.923-13.687-22.623-18.871-34.767c1.008,2.389,2.016,4.777,3.024,7.166     c-6.971-16.632-11.731-34.033-14.216-51.895c0.357,2.659,0.714,5.317,1.072,7.975c-2.44-18.451-2.44-37.094,0-55.546     c-0.357,2.659-0.715,5.317-1.072,7.975c2.484-17.861,7.245-35.263,14.216-51.895c-1.008,2.389-2.016,4.778-3.024,7.167     c5.021-11.764,11.081-23.009,18.139-33.675c1.691-2.556,3.463-5.057,5.267-7.534c1.377-1.891,5.705-7.424-0.729,0.844     c1.074-1.379,2.178-2.735,3.286-4.086c4.153-5.065,8.594-9.89,13.21-14.535c4.309-4.336,8.85-8.438,13.526-12.373     c1.003-0.844,2.022-1.668,3.041-2.493c5.709-4.62-4.875,3.68-0.896,0.664c2.791-2.115,5.654-4.131,8.549-6.1     c10.923-7.43,22.623-13.687,34.767-18.871c-2.389,1.008-4.778,2.016-7.167,3.024c16.632-6.971,34.034-11.732,51.895-14.216     c-2.658,0.357-5.317,0.714-7.975,1.072c18.451-2.44,37.094-2.44,55.546,0c-2.659-0.357-5.317-0.715-7.975-1.072     c17.861,2.484,35.263,7.245,51.895,14.216c-2.389-1.008-4.778-2.016-7.167-3.024c11.764,5.021,23.009,11.081,33.676,18.139     c2.556,1.691,5.057,3.463,7.534,5.267c1.891,1.377,7.423,5.705-0.845-0.729c1.38,1.074,2.734,2.178,4.086,3.286     c5.065,4.153,9.89,8.594,14.535,13.21c4.336,4.309,8.438,8.85,12.372,13.526c0.844,1.003,1.669,2.022,2.493,3.041     c4.62,5.709-3.68-4.875-0.664-0.897c2.115,2.791,4.131,5.655,6.101,8.549c7.43,10.923,13.687,22.623,18.87,34.767     c-1.008-2.389-2.017-4.777-3.024-7.167c6.971,16.632,11.731,34.034,14.216,51.895c-0.357-2.658-0.714-5.316-1.071-7.975     C421.793,225.472,422.411,234.73,422.442,244.028c0.056,16.353,13.604,30,30,30c16.312,0,30.056-13.646,30-30     c-0.166-49.172-15.618-98.635-45.15-138.125c-30.517-40.805-71.937-70.935-120.684-86.274     C269.169,4.701,215.467,5.988,168.795,23.077c-47.845,17.519-88.019,49.29-116.647,91.375     c-27.716,40.743-41.236,91.718-38.748,140.806c2.633,51.951,22.382,100.124,55.222,140.175     c30.469,37.16,74.28,63.983,120.677,75.921c24.351,6.265,50.188,8.619,75.258,6.669c27.339-2.126,52.886-8.772,78.023-19.501     c84.51-36.071,139.556-123.268,139.863-214.494c0.056-16.354-13.688-30-30-30C436.047,214.028,422.498,227.675,422.442,244.028z"/>
		</g>
	</g>
	<g>
		<g>
			<path d="M429.521,429.364c15.733,18.365,31.467,36.729,47.199,55.095c7.158,8.354,14.316,16.71,21.474,25.064     c2.502,2.921-1.895-3.043,0.317,0.563c-0.475-0.773-0.463-3.914-0.439-0.81c-0.009-1.22,0.244-2.828,1.17-3.747     c-0.481,0.479-1.046,0.896-1.562,1.337c-5.498,4.711-10.997,9.423-16.496,14.134c-0.729,0.625-1.46,1.251-2.19,1.876     c-2.188,1.875,1.782-1.071,2.661-1.414c2.042-0.096,2.181-0.128,0.416-0.096c0.98-0.005,4.217,1.585,1.519,0.041     c1.927,1.103,0.392,0.191-0.258-0.566c-1.589-1.855-3.179-3.711-4.769-5.566c-7.979-9.315-15.96-18.63-23.939-27.944     c-13.495-15.753-26.99-31.506-40.485-47.258c-5.323-6.215-15.768-5.445-21.213,0c-6.112,6.111-5.314,15.01,0,21.213     c15.796,18.438,31.592,36.877,47.388,55.315c7.052,8.231,14.104,16.463,21.155,24.694c6.995,8.165,17.719,11.694,28.162,9.096     c7.319-1.821,13.921-9.166,19.536-13.978c5.459-4.677,11.012-8.888,15.334-14.659c7.642-10.201,2.497-24.584-4.791-33.091     c-6.854-8.001-13.709-16.001-20.563-24.002c-16.127-18.824-32.254-37.648-48.381-56.473c-0.011-0.013-0.021-0.024-0.032-0.037     c-5.323-6.215-15.768-5.446-21.213,0C423.408,414.263,424.206,423.161,429.521,429.364L429.521,429.364z"/>
		</g>
	</g>
	<g>
		<g>
			<path d="M424.043,418.267c0.545-3.121,0.643-3.916,0.292-2.384c-0.603,2.502,1.751-3.624,0.467-1.079     c-0.53,1.051-3.905,5.543-1.149,2.071c-2.771,3.492-6.044,6.595-9.387,9.53c-0.665,0.584-5.495,4.354-2.475,2.083     c-1.787,1.343-3.651,2.577-5.551,3.752c-1.082,0.67-7.022,3.456-2.436,1.561c-0.745,0.309-1.515,0.54-2.288,0.762     c-2.759,0.792,3.939-0.257,1.322-0.142c-8.166,0.36-15,6.551-15,15c0,7.904,6.826,15.36,15,15     c12.59-0.555,23.46-8.939,32.641-16.803c8.678-7.433,17.938-17.364,18.563-29.352c0.426-8.172-7.146-15-15-15     C430.544,403.267,424.469,410.104,424.043,418.267L424.043,418.267z"/>
		</g>
	</g>
</g>
<g id="Layer_2">
	<g>
		<g>
			<path d="M332.87,155.923c23.868,20.723,35.757,50.366,35.996,81.695c0.266,34.858-14.063,69.009-36.447,95.364     c-3.525,4.15-4.087,10.056,0,14.143c3.618,3.618,10.61,4.158,14.143,0c25.733-30.299,41.807-68.102,42.302-108.132     c0.451-36.569-14.019-73.048-41.851-97.212c-4.112-3.57-10.087-4.055-14.143,0C329.221,145.431,328.752,152.347,332.87,155.923     L332.87,155.923z"/>
		</g>
	</g>
</g>
</svg>
